<svg id="svg2" xmlns="http://www.w3.org/2000/svg" viewBox="0 0 389.8 389.8"><defs><style>.cls-1{fill:#444;}.cls-1,.cls-3{fill-rule:evenodd;}.cls-2{fill:none;stroke:#fff;stroke-linecap:round;stroke-linejoin:round;stroke-width:7px;}.cls-3{fill:#fff;}</style></defs><title>logo</title><path id="path4" class="cls-1" d="M177.81,226H417.86a86.62,86.62,0,0,1,19.77,3.46,77.92,77.92,0,0,1,53.45,59.59,93.46,93.46,0,0,1,1.46,12V541.55a85.94,85.94,0,0,1-4.05,21.13,78.15,78.15,0,0,1-70.25,53.17H177a79.82,79.82,0,0,1-36.57-11.21,78.14,78.14,0,0,1-35.35-47.71,96.17,96.17,0,0,1-2.37-15V300.72c.33-3.32.51-6.66,1.14-10a77.89,77.89,0,0,1,62.61-63.43c3.74-.68,7.53-1,11.32-1.3Z" transform="translate(-102.74 -226.04)"/><path class="cls-2" d="M299.77,574.5l-.5-32.5h0a33,33,0,0,1,33-33H445.55V318.45h0L395.1,268H153v62" transform="translate(-102.74 -226.04)"/><path id="path6" class="cls-3" d="M318,294.68c-1.81.38-3.62.72-5.43,1.08a56,56,0,0,0-31.1,88.67,61.07,61.07,0,0,0,6.47,7.18c2.44,2.42,4.84,4.88,7.29,7.29,3.24,2.81,6.08,6,9.12,9a44.66,44.66,0,0,1,12.06,24.65,43.92,43.92,0,0,1-7.37,31.15,41.74,41.74,0,0,1-13.13,12.48,43.36,43.36,0,0,1-18.8,6.38,82.76,82.76,0,0,1-8.91,0,44.79,44.79,0,0,1-11.35-2.79,45.69,45.69,0,0,1-14-8.67.69.69,0,0,1-.13-.11c-14-14-28-28-42-42a2.2,2.2,0,0,1,1-3.68,9.17,9.17,0,0,1,3-.25,18.3,18.3,0,0,1,9.27,3.71,42.65,42.65,0,0,1,5.37,4.69c4.49,4.48,8.88,9.07,13.48,13.44a5.67,5.67,0,0,0,6.15,1.1,5.89,5.89,0,0,0,3.56-5.75,5.6,5.6,0,0,0-1.59-3.81c-5.09-5.25-10.43-10.26-15.42-15.61l-.09-.09c-3.26-3-6.29-6.19-9.44-9.28q-12.9-12.9-25.79-25.78c-1.2-1.22-2.83-2.53-2.61-4.44a3.88,3.88,0,0,1,5.49-3.26,20.83,20.83,0,0,1,2.74,2.41q16.45,16.45,32.91,32.92a6,6,0,0,0,9.89-2.68,5.86,5.86,0,0,0-1-5.26c-7.58-7.55-15.12-15.14-22.7-22.69-4.06-4.11-8.24-8.11-12.17-12.36l-.12-.12a90.7,90.7,0,0,1-6.47-6.39,3.87,3.87,0,0,1,.19-5.49,3.82,3.82,0,0,1,5.13.17q19.83,19.74,39.59,39.55c1.27,1.13,2.43,2.6,4.2,3a6.14,6.14,0,0,0,7.15-4.12,2.59,2.59,0,0,0,.09-.4,8.94,8.94,0,0,0,0-2.78c-.4-1.7-1.72-2.95-2.94-4.12-11.63-11.61-23.22-23.27-34.87-34.86a4.25,4.25,0,0,1-1.28-2,3.86,3.86,0,0,1,4-4.67c2,.1,3.21,1.83,4.48,3.11,10.89,10.95,21.84,21.82,32.74,32.76,1.26,1.26,2.5,2.73,4.28,3.23a6.63,6.63,0,0,0,4.84-.71,6.74,6.74,0,0,0,2.73-4.52,6.09,6.09,0,0,0-1.78-4.83c-6.06-6-12.14-12.07-18.17-18.14-2.4-2.7-5.35-4.88-7.49-7.8a3.87,3.87,0,0,1,.1-4.57,4.11,4.11,0,0,1,4-1.15,2.16,2.16,0,0,1,.65.26,23.53,23.53,0,0,1,3.47,3.16c1.5,1.42,2.84,3.24,4.92,3.82a6.07,6.07,0,0,0,7.42-4.49,6.45,6.45,0,0,0-2.25-6.18c-1.7-1.55-3.29-3.2-5-4.75a15.72,15.72,0,0,0-13.34-3.41,16,16,0,0,0-9,5.43,2.22,2.22,0,0,1-3.15.33,15.29,15.29,0,0,0-10.15-3.36,15.66,15.66,0,0,0-13.51,8.48c-.27.38-.42,1.18-1.05,1a16.73,16.73,0,0,0-5.69-.08,16,16,0,0,0-11.32,7.71,1.13,1.13,0,0,0-.12.21,16.11,16.11,0,0,0-1.85,7.93,15.92,15.92,0,0,0,.71,4.38,2.21,2.21,0,0,1-1,2.4,15.62,15.62,0,0,0-6.93,10.84,15.37,15.37,0,0,0,3.28,12.07c1.26,1.55,2.73,2.89,4.13,4.31,4.5,4.48,8.94,9,13.46,13.46l0,0a2.18,2.18,0,0,1-.7,3.58A16.94,16.94,0,0,0,188.8,420a15.18,15.18,0,0,0-2.87,8.63,6.1,6.1,0,0,0,2,4.6c15,14.93,29.95,29.94,45,44.87a55.55,55.55,0,0,0,40.71,16.59,50,50,0,0,0,13.59-1.87,56,56,0,0,0,32-85.46,66.9,66.9,0,0,0-9-10.46c-4.76-4.86-9.74-9.49-14.49-14.36a45,45,0,0,1-11.43-17.42,43.94,43.94,0,0,1,9.61-45.28,43.53,43.53,0,0,1,27.88-13.41,42,42,0,0,1,20.42,3,45.19,45.19,0,0,1,14.42,9.32c4.29,4.15,8.37,8.5,12.61,12.68,4.25,4,8.18,8.25,12.32,12.33q5.79,5.55,11.35,11.35c2.08,2.13,4.3,4.13,6.38,6.27a1.2,1.2,0,0,1,.39.7,6.66,6.66,0,0,1-3.78,1.79,12.83,12.83,0,0,1-7.1-1.07c-4.75-2-8.4-5.84-12-9.45-4.05-3.84-7.92-7.87-11.83-11.85a5.82,5.82,0,0,0-5.95-1.22,6,6,0,0,0-3.85,6.87c.27,2,1.91,3.21,3.22,4.51q24.7,24.75,49.46,49.45c1.13,1.23,2.85,2.35,2.88,4.2a3.85,3.85,0,0,1-4.18,4.08c-1.49-.05-2.45-1.31-3.44-2.24q-16-16-31.95-31.94a18.6,18.6,0,0,0-3.13-2.62,2.72,2.72,0,0,0-.46-.21,6.15,6.15,0,0,0-6.38,1.49,6,6,0,0,0,0,8.36q20.4,20.44,40.84,40.87a4,4,0,0,1,1.09,3.74,1.91,1.91,0,0,1-.25.69,5.26,5.26,0,0,1-1.65,1.67,2.18,2.18,0,0,1-.86.28,4.11,4.11,0,0,1-3.34-.74,63.68,63.68,0,0,1-4.85-4.87c-4-3.84-8-7.8-11.86-11.8-7.51-7.63-15.14-15.13-22.74-22.66-1.37-1.32-2.62-3.06-4.62-3.41a6.44,6.44,0,0,0-4.95,1,6.36,6.36,0,0,0-2.3,5,6.09,6.09,0,0,0,2.16,4.51q17.37,17.33,34.7,34.69c1.07,1.1,2.39,2.26,2.4,3.92a3.88,3.88,0,0,1-5.11,3.63c-1.57-.84-2.67-2.29-3.94-3.5-2.81-2.88-5.75-5.63-8.45-8.61l-.12-.12c-3.16-2.85-6.07-6-9.1-8.94q-7.63-7.6-15.24-15.25a9.29,9.29,0,0,0-3.18-2.24,2,2,0,0,0-.49-.11,6,6,0,0,0-4,.56c-1.78,1.05-3.32,2.9-3.23,5.07a5.85,5.85,0,0,0,1.84,4.53c4.51,4.57,9.13,9,13.6,13.64,3.86,3.92,7.83,7.73,11.66,11.68,1.85,1.86.53,5.15-1.76,5.93a2,2,0,0,1-.47.09,3.78,3.78,0,0,1-3.12-.67c-1.93-1.74-3.63-3.73-5.57-5.46a5.86,5.86,0,0,0-5.1-1,6,6,0,0,0-4.33,7.23c.39,1.91,2,3.17,3.3,4.48,2.24,2.08,4.25,4.57,7.11,5.85a15.35,15.35,0,0,0,10,1.26,15.81,15.81,0,0,0,9-5.45,2.18,2.18,0,0,1,3-.26,13.12,13.12,0,0,0,2.69,1.73,15.4,15.4,0,0,0,14,.18,16.3,16.3,0,0,0,7.1-6.8,2.15,2.15,0,0,1,2.09-1.12,34,34,0,0,0,3.5.08,14.76,14.76,0,0,0,8.53-3.34,16.37,16.37,0,0,0,5.82-9.77,1.65,1.65,0,0,0,0-.32,25.6,25.6,0,0,0,0-4.55,9.83,9.83,0,0,0-.58-2.19,2.18,2.18,0,0,1,.81-2.46,16.92,16.92,0,0,0,5.64-6.33,15.56,15.56,0,0,0,.2-13.36c-1.69-3.91-5.23-6.49-8.11-9.48-3.6-3.74-7.3-7.4-11-11.07-.18-.19-.37-.37-.56-.54a2.19,2.19,0,0,1,.7-3.64,15.88,15.88,0,0,0,8.32-6.69,13.8,13.8,0,0,0,2-8.21,7,7,0,0,0-2.41-4.21q-10.77-10.81-21.55-21.6c-8.3-8.23-16.47-16.6-24.84-24.76a55.88,55.88,0,0,0-27.24-13.75,58.49,58.49,0,0,0-18.53-.54Z" transform="translate(-102.74 -226.04)"/><polyline class="cls-2" points="164.54 315.96 197.04 348.46 228.54 316.96"/></svg>